<?xml version="1.0" encoding="utf-8"?>
<!-- Generator: Adobe Illustrator 16.0.4, SVG Export Plug-In . SVG Version: 6.00 Build 0)  -->
<svg version="1.2" baseProfile="tiny" id="Calque_4"
	 xmlns="http://www.w3.org/2000/svg" xmlns:xlink="http://www.w3.org/1999/xlink" x="0px" y="0px" width="256px" height="256px"
	 viewBox="0 0 256 256" xml:space="preserve">
<g>
	<path fill="#758991" d="M256,220c0,19.882-16.118,36-36,36H36c-19.882,0-36-16.118-36-36V36C0,16.118,16.118,0,36,0h184
		c19.882,0,36,16.118,36,36V220z"/>
	<path fill="#9FADB2" d="M247.081,28.264h-66.84v-4.352h66.84V28.264z M180.241,72.928h66.84v-6.475h-66.84V72.928z M180.241,59.871
		v4.352h66.84v-4.352H180.241z M183.771,54.33h3.343v-9.451h1.885l5.379,9.451h3.495l-5.592-9.998c2.4-0.396,4.649-1.55,4.649-5.014
		c0-5.441-6.29-5.441-8.569-5.441h-7.477v0.67c2.826,0.455,2.887,0.455,2.887,3.463V54.33z M187.113,38.041
		c0-2.188,0-2.735,2.036-2.735c2.554,0,4.438,0.911,4.438,4.194c0,3.404-2.766,3.951-4.74,3.951h-1.733V38.041z M228.476,46.793
		c0.061-0.029,0.092-0.091,0.092-0.182c0-0.243-0.243-0.578-0.455-0.578c-0.062,0-0.427,0.243-1.126,0.76
		c-0.881-0.851-1.975-1.975-3.221-3.373c-1.246-1.428-2.157-2.522-2.705-3.342c-0.03-0.092-0.122-0.123-0.212-0.123
		c-0.213,0-0.548,0.184-0.548,0.396c-0.091-0.212-0.122-0.364-0.122-0.456c0-0.213-0.121-0.303-0.364-0.303
		c-0.06,0-0.122,0-0.183,0.029c-0.303,0.152-0.972,0.273-2.035,0.365v-1.216h1.459c0.151,0,0.242-0.151,0.242-0.425
		c0-0.305-0.091-0.457-0.242-0.457c-0.457,0-0.608-0.182-1.459-1.002v-1.459c0-0.152-0.152-0.243-0.486-0.243
		s-0.486,0.091-0.486,0.243v1.459c-0.76,0.82-0.942,1.002-1.429,1.002c-0.152,0-0.243,0.152-0.243,0.457
		c0,0.273,0.091,0.425,0.243,0.425h1.429v1.246h-0.273c-0.882,0-1.581-0.03-2.066-0.122c-0.062,0-0.122,0.061-0.214,0.152
		c-0.182-0.518-0.273-0.82-0.273-0.852c0-0.212-0.122-0.334-0.334-0.334c-0.061,0-0.122,0.031-0.183,0.061
		c-0.242,0.123-0.82,0.213-1.701,0.305v-1.277h1.58c0.152,0,0.243-0.15,0.243-0.425s-0.091-0.425-0.243-0.425
		c-0.486,0-0.729-0.152-1.58-1.004v-1.61c0-0.396,0-0.638,0.029-0.729c0-0.273-0.091-0.396-0.273-0.396l-0.151,0.03
		c-0.396,0.152-1.125,0.273-2.218,0.365c-2.279,0.152-2.736,0.486-2.736,1.246c0,0.183,0.092,0.396,0.273,0.668
		c0.152,0.213,0.243,0.396,0.243,0.547c0,0.184-0.273,0.305-0.79,0.396c-1.246,0.152-1.732,0.517-1.975,1.216
		c-0.244,0.639-0.518,0.912-1.338,0.912c-0.517,0-1.094,0.182-1.672,0.578c-0.576,0.363-0.881,0.637-0.881,0.85
		c0,0.273,0.273,0.578,0.426,0.578l0.121-0.061c0.578-0.639,1.246-0.973,2.006-0.973c1.064,0,1.914-0.547,2.158-1.307
		c0.152-0.578,0.455-0.821,1.549-1.033c1.125-0.213,1.368-0.547,1.368-1.186c0-0.213-0.091-0.426-0.243-0.67
		c-0.121-0.212-0.182-0.395-0.182-0.516c0-0.244,0.607-0.396,1.822-0.426l1.49-0.091v1.61c-0.942,0.852-1.154,1.004-1.641,1.004
		c-0.152,0-0.244,0.15-0.244,0.425s0.092,0.425,0.244,0.425h1.641v1.307c-0.213,0.031-0.548,0.031-0.973,0.031
		c-1.033,0-1.732-0.031-2.066-0.121c-0.152,0-0.334,0.242-0.334,0.486c0,0.242,0.061,0.364,0.212,0.364
		c0.942,0.122,1.642,1.368,1.642,2.825c0,0.609-0.092,1.125-0.273,1.551c-1.246-0.213-2.675-0.881-4.285-1.975l-0.092-0.031
		c-0.273,0-0.517,0.304-0.517,0.547c0,0.061,0.03,0.092,0.091,0.121c0.335,0.152,0.608,0.365,0.821,0.609
		c-0.152,0.061-0.365,0.182-0.608,0.364c-0.426,0.304-0.79,0.455-1.094,0.455c-0.273,0-0.607,0.092-0.973,0.304
		c-0.395,0.184-0.729,0.273-1.033,0.273c-0.092,0-0.183,0-0.273-0.029l-0.152-0.061c-0.151,0-0.365,0.273-0.365,0.516
		c0,0.092,0.031,0.244,0.122,0.486c0.214,0.578,0.305,1.033,0.305,1.368c0,0.213-0.062,0.456-0.183,0.76l-0.061,0.213
		c0,0.213,0.182,0.517,0.395,0.517s0.547-0.213,0.973-0.608c0.578-0.547,1.063-0.82,1.489-0.82c0.091,0,0.213,0.03,0.304,0.062
		h0.121c0.335,0,0.669-0.184,1.004-0.518c0.273-0.273,0.547-0.426,0.789-0.455c-0.091,0.881-0.395,1.701-0.85,2.461
		c-0.457,0.76-0.912,1.125-1.338,1.125c-0.092,0-0.152-0.031-0.213-0.061l-0.363-0.152c-0.274,0-0.457,0.334-0.457,0.607
		c0,0.092,0.03,0.152,0.092,0.183l2.826,1.308c0.516,0.941,0.881,1.793,1.125,2.552c1.975,0.335,4.559,0.487,7.719,0.487
		c3.221,0,5.623-0.274,7.232-0.791c1.004-1.428,2.188-2.888,3.557-4.314C226.288,48.465,227.474,47.432,228.476,46.793z
		 M210.12,45.973c0.182,0.578,0.273,1.154,0.273,1.702c0,2.097-1.398,3.587-3.465,3.587c-0.79,0-1.61-0.213-2.492-0.639
		c0.518-0.305,1.004-0.942,1.459-1.945c0.486-1.003,0.729-1.945,0.729-2.766c0-0.456-0.09-0.912-0.273-1.367
		c0.821,0.395,1.398,0.637,1.672,0.669l-0.091,0.03l-0.121,0.061c-0.151,0.061-0.243,0.213-0.243,0.426
		c0,0.273,0.092,0.425,0.243,0.425c0.091,0,0.334-0.03,0.759-0.061L210.12,45.973z M213.007,39.986
		c0.334,0.76,0.486,1.459,0.486,2.097c0,1.854-1.459,2.948-4.012,2.948c0.396-0.456,0.577-1.186,0.577-2.189
		c0-1.062-0.243-1.944-0.698-2.582h0.273C211.245,40.26,212.369,40.168,213.007,39.986z M212.833,51.896
		c-0.396-0.018-0.763-0.218-0.991-0.543c-0.229-0.324-0.293-0.737-0.175-1.116c0.183-0.588,0.276-1.263,0.276-2.016v-0.304
		l0.942,3.98L212.833,51.896z M214.345,51.93h-0.456l-1.671-6.018c0.455,0,0.941,0.03,1.519,0.061
		c0.212-0.121,0.426-0.242,0.577-0.395h0.882c-0.183,0.213-0.396,0.364-0.638,0.455c-0.183,0.062-0.273,0.184-0.273,0.395
		c0,0.305,0.091,0.457,0.242,0.457l1.246-0.183L214.345,51.93z M215.804,43.572c0,0.395-0.031,0.729-0.092,1.003h-0.82
		c0.092-0.274,0.121-0.639,0.121-1.155c0-0.638-0.213-1.52-0.668-2.645C215.226,41.02,215.804,42.205,215.804,43.572z
		 M215.286,51.93l1.338-5.471v5.41L215.286,51.93z M219.39,40.686c0.334,0.82,0.516,1.58,0.516,2.248
		c0,1.885-1.245,2.826-3.707,2.826c0.395-0.455,0.578-1.185,0.578-2.188c0-1.064-0.244-1.945-0.7-2.613h0.274
		C217.718,40.959,218.72,40.867,219.39,40.686z M217.597,51.838v-5.379l1.307,5.258L217.597,51.838z M220.757,50.684
		c0,0.273-0.03,0.547-0.092,0.79l-0.82,0.122l-1.428-5.168c0.334,0,0.577,0,0.699,0.031C220.21,48.01,220.757,49.407,220.757,50.684
		z M223.492,49.377c-0.608-0.82-1.642-1.763-3.13-2.826c0.76-0.518,1.033-1.186,1.033-2.401c0-0.334-0.092-0.882-0.273-1.58
		l0.547,1.308C222.823,46.611,223.431,48.436,223.492,49.377z M222.095,49.438c0,0.213-0.184,0.426-0.578,0.639
		c-0.031-0.669-0.183-1.367-0.516-2.098C221.729,48.678,222.095,49.164,222.095,49.438z M222.763,51.078l-1.398,0.274
		c0.396-0.821,0.912-1.216,1.52-1.216c0.213,0,0.426,0.061,0.578,0.152L222.763,51.078z M225.103,47.006
		c0,0.457-0.213,0.852-0.607,1.155c-0.092-0.517-0.669-2.006-1.702-4.437C224.343,45.092,225.103,46.186,225.103,47.006z
		 M243.064,38.01c0-3.038,0.091-2.977,2.888-3.463v-0.67h-7.477c-2.279,0-8.57,0-8.57,5.441c0,3.464,2.249,4.618,4.65,5.014
		l-5.592,9.998h3.494l5.379-9.451h1.885v9.451h3.343V38.01z M239.722,43.451h-1.732c-1.976,0-4.74-0.547-4.74-3.951
		c0-3.283,1.884-4.194,4.436-4.194c2.037,0,2.037,0.547,2.037,2.735V43.451z"/>
	<g>
		<path fill="#DCE1E3" d="M183.994,71.767C182.161,34.812,156.436,5.27,125.429,5.27c-18.825,0-37.056,10.936-48.354,28.778
			c-0.26-0.162-0.534-0.271-0.796-0.419c-0.688-0.395-1.385-0.767-2.096-1.105c-0.396-0.184-0.789-0.353-1.188-0.517
			c-0.703-0.292-1.419-0.55-2.146-0.784c-0.4-0.126-0.796-0.26-1.197-0.366c-0.779-0.209-1.578-0.368-2.382-0.513
			c-0.351-0.061-0.691-0.144-1.046-0.188c-1.152-0.152-2.316-0.247-3.5-0.247c-17.2,0-31.199,16.578-31.199,36.955
			c0,0.522,0.03,1.035,0.057,1.55v0.016c-14.42,9.312-24.326,28.819-24.326,48.347c0,29.087,19.979,52.752,44.535,52.752h84.97
			c0.361,0,0.72-0.027,1.078-0.06l0.217-0.03l0.462,0.03c0.356,0.032,0.708,0.06,1.073,0.06h33.992
			c22.991,0,41.702-22.159,41.702-49.396C215.284,97.593,202.013,77.374,183.994,71.767z"/>
		<g>
			<path fill-rule="evenodd" fill="#F1F3F4" d="M56.495,84.653c0.553-0.98,0.876-1.521,1.167-2.078
				c2.258-4.318,4.511-8.644,6.772-12.963c0.362-0.689,0.731-1.382,1.161-2.03c0.772-1.169,1.813-1.862,3.29-1.609
				c1.45,0.248,1.993,1.357,2.314,2.592c0.325,1.254,0.497,2.55,0.828,3.804c0.841,3.185,1.733,6.355,2.605,9.531
				c0.146-0.017,0.293-0.033,0.439-0.049c0.411-2.698,0.78-5.403,1.243-8.091c0.73-4.235,1.762-8.387,3.647-12.281
				c0.562-1.162,1.296-2.067,2.723-2.221c2.54-0.271,4.604,2.055,3.552,4.367c-2.549,5.588-3.558,11.534-4.292,17.522
				c-0.48,3.916-0.526,7.893-0.63,11.845c-0.053,2.015-0.659,3.829-1.875,4.199c-1.837,0.559-3.129-0.452-4.257-1.708
				c-3.587-4-5.771-8.766-7.459-13.796c-0.22-0.654-0.45-1.305-0.793-2.295c-0.497,0.897-0.844,1.481-1.15,2.084
				c-1.834,3.589-3.594,7.217-5.517,10.757c-0.766,1.41-1.764,2.744-2.872,3.906c-1.746,1.835-3.354,1.54-4.407-0.773
				c-0.696-1.527-1.211-3.151-1.664-4.773c-2.135-7.639-3.503-15.438-4.719-23.263c-0.179-1.153-0.387-2.318-0.385-3.478
				c0.002-1.627,1.167-2.74,2.822-2.914c1.88-0.198,3.061,0.401,3.415,2.11c0.633,3.048,1.028,6.145,1.6,9.206
				C54.798,76.239,55.617,80.209,56.495,84.653z"/>
			<path fill-rule="evenodd" fill="#F1F3F4" d="M101.576,85.574c0.065,3.199-0.889,6.088-2.757,8.666
				c-2.288,3.155-6.228,4.019-9.416,2.083c-1.968-1.196-2.952-3.091-3.346-5.244c-0.763-4.188,0.161-8.041,2.744-11.44
				c2.576-3.392,7.131-3.906,10.207-1.136c1.667,1.502,2.333,3.526,2.561,5.708C101.615,84.661,101.576,85.12,101.576,85.574z
				 M97.021,85.463c-0.109-0.498-0.214-1.503-0.556-2.419c-0.723-1.932-2.302-2.269-3.68-0.749c-2.243,2.472-2.998,5.343-1.86,8.565
				c0.712,2.02,2.186,2.347,3.769,0.877C96.372,90.18,96.911,88.16,97.021,85.463z"/>
			<path fill-rule="evenodd" fill="#F1F3F4" d="M110.269,97.343c-3.269-0.016-5.798-1.702-6.711-4.706
				c-1.521-5.016-0.587-9.626,2.914-13.589c3.243-3.67,9.438-2.825,11.465,2.255c1.818,4.562,0.267,11.16-3.407,14.431
				C113.246,96.875,111.746,97.414,110.269,97.343z M107.537,88.042c-0.052,1.359,0.155,2.601,0.857,3.716
				c0.586,0.933,1.496,1.202,2.46,0.679c0.471-0.255,0.952-0.585,1.274-1.001c1.946-2.508,2.55-5.295,1.4-8.306
				c-0.781-2.048-2.431-2.301-3.869-0.625C108.289,84.101,107.473,85.946,107.537,88.042z"/>
			<path fill="#F1F3F4" d="M148.884,95v-6.001c-2.011,1.17-4.319,1.763-6.884,1.763c-3.295,0-6.182-0.984-8.581-2.925
				c-2.791-2.237-4.207-5.326-4.207-9.178c0-3.527,1.119-6.439,3.327-8.653c2.464-2.455,5.587-3.699,9.285-3.699
				c2.483,0,4.854,0.673,7.06,1.999v-6.209c0-0.084,0-0.158-0.003-0.226c-2.499-0.91-5.007-1.37-7.466-1.37
				c-3.176,0-6.247,0.729-9.125,2.168c-3.131,1.549-5.605,3.705-7.357,6.409c-1.855,2.851-2.796,6.102-2.796,9.665
				c0,3.186,0.768,6.093,2.279,8.642c1.644,2.78,4.125,5.052,7.379,6.752c3.084,1.613,6.379,2.431,9.795,2.431
				c1.126,0,2.147-0.083,3.033-0.246c0.893-0.166,2.323-0.539,4.259-1.108C148.884,95.148,148.884,95.079,148.884,95z"/>
		</g>
		<text transform="matrix(1 0 0 1 46.8022 54.3828)" fill="#F1F3F4" font-family="'GillSans-Bold'" font-size="24">F</text>
		<text transform="matrix(1 0 0 1 66.0762 54.3828)" fill="#F1F3F4" font-family="'GillSans-Bold'" font-size="24">O</text>
		<text transform="matrix(1 0 0 1 90.8467 54.3828)" fill="#F1F3F4" font-family="'GillSans-Bold'" font-size="24">R</text>
	</g>
	<path fill="#475459" d="M243.831,129.742c0-13.233-10.763-23.998-23.995-23.998H67.082c-13.233,0-23.999,10.765-23.999,23.998
		v86.295c0,13.233,10.766,23.996,23.999,23.996h152.754c13.228,0,23.995-10.763,23.995-23.996V129.742z"/>
	<g>
		<path fill="#F1F3F4" d="M239.204,125.826c0-13.233-10.763-23.998-23.995-23.998H62.455c-13.233,0-23.999,10.765-23.999,23.998
			v86.295c0,13.233,10.766,23.996,23.999,23.996h152.754c13.228,0,23.995-10.763,23.995-23.996V125.826z"/>
		<path fill="#ACB8BD" d="M225.925,212.121c0,5.909-4.811,10.719-10.716,10.719H62.455c-5.912,0-10.721-4.81-10.721-10.719v-61.454
			h174.19V212.121L225.925,212.121z"/>
		<path fill="#ACB8BD" d="M225.925,135.349l-174.19,0.01v-9.532c0-5.911,4.809-10.721,10.721-10.721h152.754
			c5.905,0,10.716,4.81,10.716,10.721V135.349L225.925,135.349z"/>
		<path fill="#758991" d="M68.213,216.776h36.348c1.302,0,2.357-1.057,2.357-2.358v-7.169c0-1.302-1.056-2.357-2.357-2.357H68.213
			c-1.303,0-2.358,1.056-2.358,2.357v7.169C65.854,215.72,66.909,216.776,68.213,216.776z"/>
		<path fill="#758991" d="M180.256,205.479c0,6.239,5.058,11.298,11.297,11.298h10.81c6.241,0,11.299-5.059,11.299-11.298v-10.813
			c0-6.236-5.058-11.295-11.299-11.295h-10.81c-6.239,0-11.297,5.059-11.297,11.295V205.479z"/>
	</g>
	<g>
		<text transform="matrix(0.5549 0 0 1 65.8535 202.0361)" fill="#FFFFFF" font-family="'FuturaRound-Bold'" font-size="33.5008">P</text>
		<text transform="matrix(0.5549 0 0 1 79.6475 202.0361)" fill="#FFFFFF" font-family="'FuturaRound-Bold'" font-size="33.5008">A</text>
		<text transform="matrix(0.5549 0 0 1 95.0205 202.0361)" fill="#FFFFFF" font-family="'FuturaRound-Bold'" font-size="33.5008">Y</text>
		<text transform="matrix(0.5549 0 0 1 110.2852 202.0361)" fill="#FFFFFF" font-family="'FuturaRound-Bold'" font-size="33.5008">M</text>
		<text transform="matrix(0.5549 0 0 1 130.6689 202.0361)" fill="#FFFFFF" font-family="'FuturaRound-Bold'" font-size="33.5008">E</text>
		<text transform="matrix(0.5549 0 0 1 143.1279 202.0361)" fill="#FFFFFF" font-family="'FuturaRound-Bold'" font-size="33.5008">N</text>
		<text transform="matrix(0.5549 0 0 1 161.4609 202.0361)" fill="#FFFFFF" font-family="'FuturaRound-Bold'" font-size="33.5008">T</text>
		<text transform="matrix(0.5549 0 0 1 65.8535 175.9336)" fill="#FFFFFF" font-family="'FuturaRound-Bold'" font-size="33.5008">F</text>
		<text transform="matrix(0.5549 0 0 1 76.0283 175.9336)" fill="#FFFFFF" font-family="'FuturaRound-Bold'" font-size="33.5008">I</text>
		<text transform="matrix(0.5549 0 0 1 83.0078 175.9336)" fill="#FFFFFF" font-family="'FuturaRound-Bold'" font-size="33.5008">C</text>
		<text transform="matrix(0.5549 0 0 1 95.126 175.9336)" fill="#FFFFFF" font-family="'FuturaRound-Bold'" font-size="33.5008">T</text>
		<text transform="matrix(0.5549 0 0 1 105.0371 175.9336)" fill="#FFFFFF" font-family="'FuturaRound-Bold'" font-size="33.5008">I</text>
		<text transform="matrix(0.5549 0 0 1 112.0166 175.9336)" fill="#FFFFFF" font-family="'FuturaRound-Bold'" font-size="33.5008">T</text>
		<text transform="matrix(0.5549 0 0 1 121.9287 175.9336)" fill="#FFFFFF" font-family="'FuturaRound-Bold'" font-size="33.5008">I</text>
		<text transform="matrix(0.5549 0 0 1 128.9082 175.9336)" fill="#FFFFFF" font-family="'FuturaRound-Bold'" font-size="33.5008">O</text>
		<text transform="matrix(0.5549 0 0 1 145.2646 175.9336)" fill="#FFFFFF" font-family="'FuturaRound-Bold'" font-size="33.5008">U</text>
		<text transform="matrix(0.5549 0 0 1 159.8232 175.9336)" fill="#FFFFFF" font-family="'FuturaRound-Bold'" font-size="33.5008">S</text>
	</g>
</g>
</svg>
